<svg xmlns="http://www.w3.org/2000/svg" width="23.999" height="23.999" viewBox="0 0 23.999 23.999">
  <path id="rocket-2" d="M23.775,1.519l-.1-.561A.774.774,0,0,0,23.05.335l-.561-.1A14,14,0,0,0,15.351.8,14.305,14.305,0,0,0,8.71,5.7L7.8,5.392A4.263,4.263,0,0,0,3.55,6.27L.685,8.875A2.084,2.084,0,0,0,2.021,12.5l2.535.079a2.519,2.519,0,0,0,.7,2.193l3.978,3.979a2.517,2.517,0,0,0,2.193.7l.079,2.534a2.084,2.084,0,0,0,3.623,1.336l2.6-2.865a4.264,4.264,0,0,0,.878-4.253l-.311-.907a14.25,14.25,0,0,0,4.9-6.641,13.994,13.994,0,0,0,.567-7.138Zm-22.049,8.5,2.865-2.6A2.716,2.716,0,0,1,7.3,6.857L7.719,7A33.183,33.183,0,0,0,5.2,11.048l-3.133-.1a.534.534,0,0,1-.343-.93Zm15.426,6.688a2.715,2.715,0,0,1-.559,2.708l-2.6,2.865a.534.534,0,0,1-.93-.343l-.1-3.133a33.118,33.118,0,0,0,4.048-2.516Zm.937-3.243a31.546,31.546,0,0,1-6.644,4.375.969.969,0,0,1-1.112-.186s.036.036-3.979-3.979a.969.969,0,0,1-.186-1.112q.3-.607.621-1.2l4.2,4.2a.774.774,0,1,0,1.095-1.095L7.591,9.976a31.488,31.488,0,0,1,3.016-4.131A12.444,12.444,0,0,1,22.246,1.763,12.443,12.443,0,0,1,18.089,13.465ZM13.688,5.6a3.337,3.337,0,1,0,4.719,0,3.34,3.34,0,0,0-4.719,0Zm3.625,3.625a1.789,1.789,0,1,1,0-2.53A1.791,1.791,0,0,1,17.313,9.225ZM1.19,18.115a.774.774,0,0,1,0-1.095l1-1a.774.774,0,0,1,1.095,1.095l-1,1A.774.774,0,0,1,1.19,18.115ZM8.03,20.76a.774.774,0,0,1,0,1.095l-1,1a.774.774,0,1,1-1.095-1.095l1-1A.774.774,0,0,1,8.03,20.76Zm-1.691-2-3.4,3.4A.774.774,0,0,1,1.84,21.074l3.4-3.4a.774.774,0,0,1,1.095,1.095Z" transform="translate(-0.001 -0.009)" fill="#4d4d4d"/>
</svg>
