<svg xmlns="http://www.w3.org/2000/svg" width="23.998" height="23.998" viewBox="0 0 23.998 23.998">
  <g id="target" transform="translate(0 -0.001)">
    <g id="Grupo_3711" data-name="Grupo 3711" transform="translate(0 0.001)">
      <g id="Grupo_3710" data-name="Grupo 3710" transform="translate(0 0)">
        <path id="Trazado_8261" data-name="Trazado 8261" d="M12.506,11.517s-.005-.01-.009-.014L8.484,7.491V4.97a.7.7,0,0,0-.206-.5L4.06.207a.7.7,0,0,0-1.2.5V2.814H.7a.7.7,0,0,0-.5,1.2L4.472,8.279a.7.7,0,0,0,.5.206H7.49L11.5,12.5s.01.005.014.009a.7.7,0,0,0,.99-.99Z" transform="translate(0 -0.001)" fill="#4d4d4d"/>
      </g>
    </g>
    <g id="Grupo_3713" data-name="Grupo 3713" transform="translate(0 0.001)">
      <g id="Grupo_3712" data-name="Grupo 3712" transform="translate(0 0)">
        <path id="Trazado_8262" data-name="Trazado 8262" d="M12,0A11.894,11.894,0,0,0,6.97,1.175L9.127,3.331A9.163,9.163,0,1,1,3.332,9.126L1.176,6.969A11.9,11.9,0,0,0,0,12,12,12,0,1,0,12,0Z" transform="translate(-0.003 -0.002)" fill="#4d4d4d"/>
      </g>
    </g>
    <g id="Grupo_3715" data-name="Grupo 3715" transform="translate(5.672 5.673)">
      <g id="Grupo_3714" data-name="Grupo 3714">
        <path id="Trazado_8263" data-name="Trazado 8263" d="M127.33,121a6.253,6.253,0,0,0-2.109.389v.847l1.625,1.625a3.461,3.461,0,0,1,.484-.049,3.515,3.515,0,1,1-3.515,3.515,3.461,3.461,0,0,1,.049-.484l-1.625-1.625h-.847a6.253,6.253,0,0,0-.389,2.109A6.328,6.328,0,1,0,127.33,121Z" transform="translate(-121.002 -121.001)" fill="#4d4d4d"/>
      </g>
    </g>
  </g>
</svg>
