<svg xmlns="http://www.w3.org/2000/svg" width="26.184" height="23.999" viewBox="0 0 26.184 23.999">
  <path id="shopping-cart" d="M25.108,25.707H4.635l-.3-3.39a1.075,1.075,0,0,0-1.071-.979H1.075a1.075,1.075,0,1,0,0,2.151h1.2L3.514,37.268a4.137,4.137,0,0,0,1.549,2.8,3.259,3.259,0,1,0,5.633.9h5.885a3.26,3.26,0,1,0,3.065-2.151H7.637A2,2,0,0,1,5.8,37.605L22.986,36.6a1.075,1.075,0,0,0,.98-.813l2.185-8.739a1.076,1.076,0,0,0-1.043-1.336ZM7.63,43.186a1.109,1.109,0,1,1,1.109-1.109A1.111,1.111,0,0,1,7.63,43.186Zm12.016,0a1.109,1.109,0,1,1,1.109-1.109A1.111,1.111,0,0,1,19.646,43.186Zm2.425-8.691-16.56.973-.683-7.61h18.9Z" transform="translate(0 -21.338)" fill="#4d4d4d"/>
</svg>
