<svg xmlns="http://www.w3.org/2000/svg" viewBox="0 0 705.01 184.16"><defs><style>.cls-1{fill:#ff6f61;}.cls-2{fill:#4d4d4d;}</style></defs><g id="Capa_2" data-name="Capa 2"><g id="Capa_1-2" data-name="Capa 1"><path class="cls-1" d="M0,129.76V48.83H37.16v80.25c0,12.91,8.32,21.24,20.46,21.24S78.07,142,78.07,129.08V48.83h37.17v80.93c0,32.48-24,54.4-57.62,54.4S0,162.24,0,129.76Z"/><path class="cls-1" d="M196.36,75.82c31.35,0,53.49,22.53,53.49,54.17s-22.14,54.17-53.49,54.17a47.28,47.28,0,0,1-30.72-10.9l-3.3,7.56h-26V42.23h34.67V82.84a47.77,47.77,0,0,1,25.31-7ZM214.46,130c0-13.3-9.66-23.22-22.8-23.22s-22.79,9.92-22.79,23.22,9.66,23.11,22.79,23.11S214.46,143.18,214.46,130Z"/><path class="cls-1" d="M325.9,75.82c31.35,0,53.49,22.53,53.49,54.17s-22.14,54.17-53.49,54.17a47.28,47.28,0,0,1-30.72-10.9l-3.3,7.56h-26V42.23h34.67V82.84a47.77,47.77,0,0,1,25.31-7ZM344,130c0-13.3-9.66-23.22-22.8-23.22s-22.79,9.92-22.79,23.22,9.66,23.11,22.79,23.11S344,143.18,344,130Z"/><path class="cls-1" d="M395.47,79h35.07V180.82H395.47Z"/><path class="cls-1" d="M521.26,150.1v30.72H497.13c-22.51,0-36.2-13.76-36.2-36.39V106H442.3v-8.2l45.61-48.58h7.21V79H520.7v27H496v32.4c0,7.3,4.4,11.69,11.8,11.69Z"/><path class="cls-1" d="M606.3,150.1v30.72H582.17c-22.51,0-36.2-13.76-36.2-36.39V106H527.33v-8.2L573,49.23h7.21V79h25.58v27H581v32.4c0,7.3,4.4,11.69,11.8,11.69Z"/><circle class="cls-1" cx="18.32" cy="18.32" r="18.32"/><circle class="cls-1" cx="96.92" cy="18.32" r="18.32"/><path class="cls-2" d="M658.54,148.16c2.54-10.1,10.72-16.57,21.64-16.57,14.34,0,24.6,11.11,24.6,26.58,0,15.15-9.88,25.56-24.48,26v-18.1c5-.21,8.27-3.3,8.27-7.93,0-4.82-3.54-8.2-8.7-8.2s-8.34,3.5-8.34,9v11.3H667.6l-18.88-11.48v23.66H632.65V134h3.24l22.65,14.15Z"/><path class="cls-2" d="M678.68,67.9c15.46,0,26.1,11.41,26.1,27.95s-10.63,28.07-26,28.07c-7.23,0-14.38-2.16-24.27-8.07L632.65,102.9V82.53c7.78,4.65,15.52,9.34,23.3,14a29.84,29.84,0,0,1-.35-4.67C655.6,77.74,665.05,67.9,678.68,67.9Zm0,18.16c-6,0-10,4.08-10,9.85s4.06,9.85,10,9.85a9.47,9.47,0,0,0,9.91-9.85C688.59,90.14,684.57,86.06,678.68,86.06Z"/><path class="cls-2" d="M668,61.72c-22.59,0-37-12.06-37-30.86S645.4,0,668,0s37,12.12,37,30.86S690.5,61.72,668,61.72Zm.06-42.39c-13,0-20.29,4.16-20.29,11.53S655,42.39,668,42.39s20.22-4.1,20.22-11.53S681,19.33,668.05,19.33Z"/></g></g></svg>