<svg xmlns="http://www.w3.org/2000/svg" width="196.291" height="126.145" viewBox="0 0 196.291 126.145">
  <g id="Unión_46" data-name="Unión 46" fill="#ffd800">
    <path d="M 151.2819061279297 125.644905090332 L 15.00030326843262 125.644905090332 C 11.12715339660645 125.644905090332 7.485777854919434 124.1366500854492 4.747003078460693 121.3980026245117 C 2.008277893066406 118.6593780517578 0.500002920627594 115.0183029174805 0.500002920627594 111.1455001831055 L 0.500002920627594 15.0003023147583 C 0.500002920627594 11.12710285186768 2.008277893066406 7.485752582550049 4.74702787399292 4.747027397155762 C 7.485753059387207 2.008277654647827 11.12710285186768 0.5000025629997253 15.00030326843262 0.5000025629997253 L 151.2819061279297 0.5000025629997253 C 155.1551055908203 0.5000025629997253 158.7964477539062 2.008277654647827 161.5351715087891 4.747027397155762 C 164.27392578125 7.485752582550049 165.7821960449219 11.12710285186768 165.7821960449219 15.0003023147583 L 165.7821960449219 40.81230163574219 L 165.7821960449219 41.10220336914062 L 166.0337982177734 41.2462272644043 L 191.0106048583984 55.54452896118164 C 194.0040283203125 57.25787734985352 195.7911224365234 60.33985137939453 195.7911224365234 63.78885269165039 C 195.7911224365234 67.23785400390625 194.0040283203125 70.31982421875 191.0106353759766 72.03314971923828 L 166.0337982177734 86.33147430419922 L 165.7821960449219 86.47550201416016 L 165.7821960449219 86.76540374755859 L 165.7821960449219 111.1455001831055 C 165.7821960449219 115.0183029174805 164.27392578125 118.6593780517578 161.5352020263672 121.3980026245117 C 158.7964324951172 124.1366500854492 155.1550598144531 125.644905090332 151.2819061279297 125.644905090332 Z" stroke="none"/>
    <path d="M 151.2819061279297 125.144905090332 C 155.0214996337891 125.144905090332 158.5373077392578 123.6886520385742 161.1816558837891 121.0444259643555 C 163.825927734375 118.4002532958984 165.2821960449219 114.8847503662109 165.2821960449219 111.1455001831055 L 165.2821960449219 86.18560028076172 L 190.7622528076172 71.59920501708984 C 193.5980834960938 69.97607421875 195.2911224365234 67.05630493164062 195.2911224365234 63.78885269165039 C 195.2911224365234 60.52140426635742 193.5980834960938 57.60162734985352 190.7621765136719 55.97845077514648 L 165.2821960449219 41.3921012878418 L 165.2821960449219 15.0003023147583 C 165.2821960449219 11.26065254211426 163.825927734375 7.744852542877197 161.1816253662109 5.100577354431152 C 158.537353515625 2.45627760887146 155.0215454101562 1.000002503395081 151.2819061279297 1.000002503395081 L 15.00030326843262 1.000002503395081 C 11.26065254211426 1.000002503395081 7.744853019714355 2.45627760887146 5.100577831268311 5.100577354431152 C 2.456277847290039 7.744852542877197 1.000002980232239 11.26065254211426 1.000002980232239 15.0003023147583 L 1.000002980232239 111.1455001831055 C 1.000002980232239 114.8847503662109 2.456277847290039 118.4002532958984 5.100553035736084 121.0444259643555 C 7.744903087615967 123.6886520385742 11.26070308685303 125.144905090332 15.00030326843262 125.144905090332 L 151.2819061279297 125.144905090332 M 151.2819061279297 126.144905090332 L 15.00030326843262 126.144905090332 C 6.715803146362305 126.144905090332 2.929687525465852e-06 119.4291000366211 2.929687525465852e-06 111.1455001831055 L 2.929687525465852e-06 15.0003023147583 C 2.929687525465852e-06 6.715802669525146 6.715803146362305 2.545165898482082e-06 15.00030326843262 2.545165898482082e-06 L 151.2819061279297 2.545165898482082e-06 C 159.56640625 2.545165898482082e-06 166.2821960449219 6.715802669525146 166.2821960449219 15.0003023147583 L 166.2821960449219 40.81230163574219 L 191.2590026855469 55.11060333251953 C 197.968505859375 58.95090103149414 197.968505859375 68.62680053710938 191.2590026855469 72.46710205078125 L 166.2821960449219 86.76540374755859 L 166.2821960449219 111.1455001831055 C 166.2821960449219 119.4291000366211 159.56640625 126.144905090332 151.2819061279297 126.144905090332 Z" stroke="none" fill="#fefefe"/>
  </g>
</svg>
