<?xml version="1.0" encoding="utf-8"?>
<!-- Generator: Adobe Illustrator 24.0.2, SVG Export Plug-In . SVG Version: 6.00 Build 0)  -->
<svg version="1.1" xmlns="http://www.w3.org/2000/svg" xmlns:xlink="http://www.w3.org/1999/xlink" x="0px" y="0px"
	 viewBox="0 0 150 50" style="enable-background:new 0 0 150 50;" xml:space="preserve">
<style type="text/css">
	.st0{fill:#DB2455;}
</style>
<g id="Layer_1">
</g>
<g id="logo_redibujado">
	<g>
		<path class="st0" d="M114.28,7.85c0,4.33-3.51,7.85-7.85,7.85c-4.33,0-7.85-3.51-7.85-7.85c0-4.33,3.51-7.85,7.85-7.85
			C110.77,0,114.28,3.51,114.28,7.85z"/>
		<path class="st0" d="M60.09,22.62c6.76-1.65,28.85-3.06,44.57,1.02c2.55,0.66,8.74,2.47,9.26,6.58c0,0,0.86,3.04-6.68,6.65
			c-7.52,3.6-13.82,5.74-18.89,7.25c-4.85,1.44-13.72,3.83-16.66,4.38c-2.48,0.46-7.71,1.56-10.43,1.49
			c-1.92-0.05-0.75-1.02,0.55-1.77c2.37-1.38,9.03-3.64,12.52-4.79c3.49-1.15,14.53-5.03,16.92-5.92c2.84-1.07,8.17-3.42,9.73-4.48
			c1.87-1.26,4.05-3.21,1.89-4.45c-1.89-1.09-3.71-1.32-7.78-1.88c-4.02-0.56-13.52-0.93-16.16-0.95c-2.62-0.02-8.35-0.26-9.94-0.28
			c-1.11-0.01-9.15-0.5-10.24-1.21C57.97,23.77,58.01,23.13,60.09,22.62z"/>
		<path class="st0" d="M44.92,28.86h-4.67l-4.08,11.54h4.43l0.34-1.46h3.13l0.41,1.46h4.43L44.92,28.86z M41.61,36.24l0.94-3.96
			l0.88,3.96H41.61z"/>
		<path class="st0" d="M74.32,28.86h-4.67l-4.08,11.54h4.43l0.34-1.46h3.13l0.41,1.46h4.43L74.32,28.86z M71.01,36.24l0.94-3.96
			l0.88,3.96H71.01z"/>
		<polygon class="st0" points="51.67,40.39 51.67,28.86 55.65,28.86 59.21,34.8 59.21,28.86 63.2,28.86 63.2,40.39 59.21,40.39 
			55.65,34.43 55.65,40.39 		"/>
		<g>
			<path class="st0" d="M35.72,43.71h0.63c0,0.11,0.02,0.17,0.06,0.2c0.03,0.02,0.07,0.03,0.12,0.04c0.05,0,0.21,0.01,0.47,0.01
				c0.28,0,0.44,0,0.5-0.01c0.06,0,0.1-0.01,0.13-0.02c0.05-0.02,0.07-0.07,0.07-0.16c0-0.06-0.02-0.11-0.05-0.13
				c-0.03-0.02-0.1-0.03-0.21-0.04c-0.08,0-0.25-0.01-0.51-0.02c-0.27-0.01-0.44-0.02-0.52-0.02c-0.16-0.01-0.28-0.02-0.36-0.04
				c-0.08-0.02-0.15-0.06-0.2-0.12c-0.08-0.09-0.12-0.25-0.12-0.46c0-0.24,0.05-0.41,0.14-0.51c0.07-0.08,0.18-0.13,0.32-0.15
				c0.15-0.02,0.44-0.03,0.89-0.03c0.31,0,0.54,0.01,0.66,0.03c0.2,0.03,0.33,0.08,0.4,0.16c0.07,0.08,0.11,0.22,0.11,0.41
				c0,0.02,0,0.05,0,0.1h-0.63c0-0.06-0.01-0.1-0.01-0.12c-0.01-0.02-0.02-0.04-0.05-0.05c-0.03-0.02-0.08-0.03-0.15-0.03
				c-0.07,0-0.22-0.01-0.45-0.01c-0.28,0-0.45,0.01-0.51,0.03c-0.06,0.02-0.09,0.07-0.09,0.14c0,0.08,0.03,0.12,0.09,0.14
				c0.05,0.01,0.28,0.03,0.69,0.04c0.35,0.01,0.58,0.02,0.69,0.04c0.12,0.01,0.21,0.04,0.28,0.08c0.08,0.05,0.13,0.11,0.17,0.19
				c0.03,0.08,0.05,0.2,0.05,0.35c0,0.2-0.03,0.35-0.08,0.45c-0.04,0.07-0.1,0.13-0.17,0.16c-0.07,0.04-0.17,0.06-0.31,0.07
				c-0.14,0.01-0.4,0.02-0.79,0.02c-0.32,0-0.56-0.01-0.71-0.02c-0.15-0.02-0.27-0.05-0.35-0.09c-0.08-0.05-0.14-0.11-0.17-0.18
				c-0.03-0.08-0.05-0.19-0.05-0.34V43.71z"/>
			<path class="st0" d="M40.05,42.28h2.37v0.5h-1.73v0.31h1.64v0.47h-1.64v0.34h1.74v0.51h-2.38V42.28z"/>
			<path class="st0" d="M45.42,43.2h1.49c0,0.03,0,0.05,0,0.06c0,0.3-0.01,0.53-0.02,0.68c-0.02,0.25-0.17,0.4-0.42,0.45
				c-0.11,0.02-0.24,0.04-0.38,0.04c-0.14,0.01-0.36,0.01-0.65,0.01c-0.37,0-0.63-0.01-0.78-0.03c-0.15-0.02-0.27-0.06-0.36-0.12
				c-0.06-0.04-0.11-0.09-0.14-0.16c-0.03-0.06-0.05-0.15-0.07-0.25c-0.01-0.1-0.02-0.29-0.02-0.58c0-0.2,0.01-0.34,0.02-0.44
				c0.01-0.1,0.03-0.19,0.06-0.27c0.06-0.17,0.19-0.27,0.39-0.3c0.22-0.04,0.56-0.06,1.01-0.06c0.27,0,0.48,0.01,0.64,0.02
				c0.16,0.01,0.29,0.04,0.39,0.07c0.16,0.05,0.26,0.16,0.3,0.33c0.02,0.08,0.03,0.2,0.03,0.35h-0.65c0-0.06,0-0.1-0.01-0.12
				c-0.01-0.02-0.02-0.04-0.04-0.05c-0.04-0.03-0.11-0.04-0.23-0.05c-0.11-0.01-0.27-0.01-0.48-0.01c-0.23,0-0.39,0.01-0.48,0.02
				c-0.1,0.01-0.16,0.03-0.2,0.06c-0.04,0.03-0.06,0.08-0.07,0.14c-0.01,0.07-0.02,0.18-0.02,0.34c0,0.18,0.01,0.31,0.02,0.38
				c0.01,0.07,0.04,0.12,0.07,0.15c0.04,0.03,0.08,0.05,0.14,0.05c0.06,0.01,0.24,0.01,0.54,0.01c0.3,0,0.48,0,0.54-0.01
				c0.06,0,0.11-0.01,0.15-0.03c0.03-0.01,0.05-0.04,0.07-0.07c0.01-0.03,0.02-0.08,0.02-0.14c0-0.01,0-0.03,0-0.06h-0.86V43.2z"/>
			<path class="st0" d="M48.64,42.28h0.65v0.98c0,0.23,0.01,0.37,0.02,0.43c0.02,0.08,0.07,0.14,0.16,0.16
				c0.09,0.03,0.28,0.04,0.55,0.04c0.23,0,0.38-0.01,0.47-0.02c0.09-0.01,0.15-0.04,0.19-0.08c0.02-0.03,0.04-0.06,0.05-0.1
				c0.01-0.04,0.02-0.1,0.02-0.2c0.01-0.1,0.01-0.18,0.01-0.24v-0.98h0.65v0.98c-0.01,0.34-0.02,0.57-0.03,0.67
				c-0.03,0.18-0.11,0.31-0.26,0.4c-0.08,0.05-0.2,0.08-0.35,0.1c-0.15,0.02-0.4,0.02-0.74,0.02c-0.26,0-0.46,0-0.6-0.01
				c-0.14-0.01-0.26-0.03-0.37-0.05c-0.23-0.05-0.36-0.19-0.4-0.41c-0.01-0.08-0.02-0.16-0.03-0.23c0-0.07-0.01-0.23-0.01-0.48
				V42.28z"/>
			<path class="st0" d="M53.2,44.42v-2.14h1.58c0.37,0,0.59,0,0.66,0.01c0.07,0.01,0.14,0.03,0.21,0.07
				c0.08,0.05,0.14,0.12,0.17,0.2c0.03,0.09,0.05,0.22,0.05,0.41c0,0.16-0.01,0.27-0.03,0.34c-0.02,0.07-0.06,0.13-0.11,0.18
				c-0.06,0.05-0.14,0.08-0.26,0.1c0.14,0.01,0.24,0.05,0.29,0.12c0.03,0.04,0.06,0.09,0.07,0.15c0.01,0.06,0.01,0.18,0.01,0.36v0.2
				H55.2V44.3c0-0.12,0-0.2-0.01-0.25c-0.01-0.05-0.03-0.09-0.05-0.12c-0.02-0.03-0.06-0.04-0.1-0.05
				c-0.04-0.01-0.13-0.01-0.27-0.01h-0.92v0.54H53.2z M53.85,43.34h0.92c0.16,0,0.26-0.01,0.29-0.01c0.03,0,0.06-0.01,0.08-0.02
				c0.03-0.02,0.05-0.04,0.06-0.08c0.01-0.03,0.02-0.09,0.02-0.16c0-0.07-0.01-0.12-0.02-0.16c-0.01-0.03-0.04-0.06-0.07-0.08
				c-0.02-0.01-0.05-0.02-0.08-0.02c-0.03,0-0.12,0-0.27,0h-0.92V43.34z"/>
			<path class="st0" d="M59.01,42.24c0.46,0,0.78,0.01,0.95,0.03c0.25,0.03,0.4,0.15,0.46,0.36c0.04,0.14,0.06,0.38,0.06,0.71
				c0,0.33-0.02,0.57-0.06,0.71c-0.06,0.2-0.21,0.32-0.46,0.36c-0.17,0.02-0.49,0.03-0.95,0.03c-0.47,0-0.79-0.01-0.96-0.03
				c-0.25-0.03-0.4-0.15-0.46-0.36c-0.04-0.14-0.06-0.38-0.06-0.72c0-0.33,0.02-0.56,0.06-0.7c0.06-0.2,0.21-0.32,0.46-0.36
				C58.22,42.26,58.54,42.24,59.01,42.24z M59.01,42.8c-0.35,0-0.55,0.01-0.62,0.03c-0.08,0.02-0.13,0.07-0.16,0.14
				c-0.03,0.07-0.04,0.22-0.04,0.43c0,0.13,0.01,0.23,0.02,0.28c0.03,0.11,0.11,0.17,0.24,0.19c0.1,0.01,0.29,0.02,0.57,0.02
				c0.26,0,0.44,0,0.52-0.01s0.15-0.03,0.19-0.06c0.04-0.03,0.06-0.07,0.08-0.13c0.01-0.06,0.02-0.15,0.02-0.28
				c0-0.15-0.01-0.27-0.02-0.34c-0.01-0.07-0.03-0.13-0.06-0.16c-0.03-0.05-0.09-0.07-0.17-0.09C59.5,42.81,59.31,42.8,59.01,42.8z"
				/>
			<path class="st0" d="M62.14,43.71h0.63c0,0.11,0.02,0.17,0.06,0.2c0.03,0.02,0.07,0.03,0.12,0.04c0.05,0,0.21,0.01,0.47,0.01
				c0.28,0,0.44,0,0.5-0.01c0.06,0,0.1-0.01,0.13-0.02c0.05-0.02,0.07-0.07,0.07-0.16c0-0.06-0.02-0.11-0.05-0.13
				c-0.03-0.02-0.1-0.03-0.21-0.04c-0.08,0-0.25-0.01-0.51-0.02c-0.27-0.01-0.44-0.02-0.52-0.02c-0.16-0.01-0.28-0.02-0.36-0.04
				c-0.08-0.02-0.15-0.06-0.2-0.12c-0.08-0.09-0.12-0.25-0.12-0.46c0-0.24,0.05-0.41,0.14-0.51c0.07-0.08,0.18-0.13,0.32-0.15
				c0.15-0.02,0.44-0.03,0.89-0.03c0.31,0,0.54,0.01,0.66,0.03c0.2,0.03,0.33,0.08,0.4,0.16c0.07,0.08,0.11,0.22,0.11,0.41
				c0,0.02,0,0.05,0,0.1h-0.63c0-0.06-0.01-0.1-0.01-0.12c-0.01-0.02-0.02-0.04-0.05-0.05c-0.03-0.02-0.08-0.03-0.15-0.03
				c-0.07,0-0.22-0.01-0.45-0.01c-0.28,0-0.45,0.01-0.51,0.03c-0.06,0.02-0.09,0.07-0.09,0.14c0,0.08,0.03,0.12,0.09,0.14
				c0.05,0.01,0.28,0.03,0.69,0.04c0.35,0.01,0.58,0.02,0.69,0.04c0.12,0.01,0.21,0.04,0.28,0.08c0.08,0.05,0.13,0.11,0.17,0.19
				c0.03,0.08,0.05,0.2,0.05,0.35c0,0.2-0.03,0.35-0.08,0.45c-0.04,0.07-0.1,0.13-0.17,0.16c-0.07,0.04-0.17,0.06-0.31,0.07
				c-0.14,0.01-0.4,0.02-0.79,0.02c-0.32,0-0.56-0.01-0.71-0.02c-0.15-0.02-0.27-0.05-0.35-0.09c-0.08-0.05-0.14-0.11-0.17-0.18
				c-0.03-0.08-0.05-0.19-0.05-0.34V43.71z"/>
		</g>
	</g>
</g>
</svg>
