<svg xmlns="http://www.w3.org/2000/svg" width="500" height="500" viewBox="0 0 500 500">
  <g id="Grupo_1050" data-name="Grupo 1050" transform="translate(11537 1229)">
    <rect id="Rectángulo_3182" data-name="Rectángulo 3182" width="500" height="500" transform="translate(-11537 -1229)" fill="none"/>
    <g id="Grupo_1049" data-name="Grupo 1049" transform="translate(-11434.811 -6198.938) rotate(-90)">
      <g id="Grupo_583" data-name="Grupo 583" transform="translate(-5458.483 147.416)">
        <g id="Grupo_118" data-name="Grupo 118">
          <g id="Grupo_117" data-name="Grupo 117">
            <path id="Trazado_147" data-name="Trazado 147" d="M416.092-52.819H-25.526V100.46H416.092c20.045,0,36.3-23.53,36.3-52.559V-.269C452.389-29.289,436.137-52.819,416.092-52.819Z" transform="translate(25.526 52.819)" fill="#42495f"/>
          </g>
        </g>
        <g id="Grupo_119" data-name="Grupo 119" transform="translate(0.503 17.753)">
          <path id="Trazado_148" data-name="Trazado 148" d="M409.594-50.914H-25.472V66.85H409.594C424.989,66.85,424.989-50.914,409.594-50.914Z" transform="translate(25.472 50.914)" fill="#a5a5b5"/>
        </g>
      </g>
      <g id="Grupo_584" data-name="Grupo 584" transform="translate(-4981.177 149.019) rotate(180)">
        <g id="Grupo_114" data-name="Grupo 114" transform="translate(0)">
          <g id="Grupo_113" data-name="Grupo 113">
            <path id="Trazado_145" data-name="Trazado 145" d="M441.618,0H0V153.269H441.618c20.045,0,36.3-23.521,36.3-52.55V52.55C477.915,23.53,461.663,0,441.618,0Z" fill="#42495f"/>
          </g>
        </g>
        <g id="Grupo_115" data-name="Grupo 115" transform="translate(0.503 17.753)">
          <path id="Trazado_146" data-name="Trazado 146" d="M435.066,0H0V117.773H435.066C450.461,117.773,450.461,0,435.066,0Z" fill="#a5a5b5"/>
        </g>
      </g>
    </g>
  </g>
</svg>
