<svg xmlns="http://www.w3.org/2000/svg" width="500" height="500" viewBox="0 0 500 500">
  <g id="Grupo_1053" data-name="Grupo 1053" transform="translate(9195 1971)">
    <rect id="Rectángulo_3179" data-name="Rectángulo 3179" width="500" height="500" transform="translate(-9195 -1971)" fill="none"/>
    <g id="spoon-and-fork-crossed" transform="translate(-9194.979 -1944.7)">
      <g id="Grupo_415" data-name="Grupo 415" transform="translate(0 3.002)">
        <path id="Trazado_264" data-name="Trazado 264" d="M148.941,196.205c5.255,5.265,20.726-1.667,25.991-6.931l8.667-8.667c5.265-5.265,12.2-20.736,6.932-26L60.223,30.947,26.154,66.84Z" transform="translate(230.261 243.025)" fill="#a5a5b5"/>
        <path id="Trazado_265" data-name="Trazado 265" d="M163.129,140.719c16.951-29.481,7.99-65.217-18.706-91.914-31.55-31.54-99.669-62.393-131.208-30.844s-.7,99.669,30.844,131.208c26.187,26.187,61.08,35.324,90.247,19.647l61.746,65.08,32.618-30.952Z" transform="translate(0 12.359)" fill="#a5a5b5"/>
        <path id="Trazado_266" data-name="Trazado 266" d="M266.96,155.168,8.318,400.634c-5.265,5.265,1.667,20.736,6.932,26l8.667,8.667c3.941,3.941,13.588,8.8,20.4,8.8a7.781,7.781,0,0,0,5.6-1.873l246.368-259.6a60.52,60.52,0,0,0,21.383,5.951c21.853,2,44.638-7.579,62.962-25.9,62.119-62.109,73.266-75.786,54.2-99.718L361.5,133.236a9.013,9.013,0,0,1-6.275,2.637,7.576,7.576,0,0,1-5.431-2.226l-1.961-1.951a7.624,7.624,0,0,1-2.216-5.441,9.146,9.146,0,0,1,2.706-6.333l66.56-78.09-4.755-4.755c-2.853-2.853-5.51-5.52-8.02-8.059L323.726,95.883a8.77,8.77,0,0,1-6.049,2.441,7.577,7.577,0,0,1-5.431-2.226l-1.961-1.951a7.624,7.624,0,0,1-2.216-5.441,9.146,9.146,0,0,1,2.706-6.333L380.7,9.41C358.138-6.982,344.432,6.685,284.509,66.6,264.578,86.53,255,111.736,259.421,135.256A62.132,62.132,0,0,0,266.96,155.168Z" transform="translate(56.691 -3.002)" fill="#42495f"/>
      </g>
    </g>
  </g>
</svg>
