<?xml version="1.0" encoding="utf-8"?>
<!-- Generator: Adobe Illustrator 24.0.2, SVG Export Plug-In . SVG Version: 6.00 Build 0)  -->
<svg version="1.1" id="Camada_1" xmlns="http://www.w3.org/2000/svg" xmlns:xlink="http://www.w3.org/1999/xlink" x="0px" y="0px"
	 viewBox="0 0 150 50" style="enable-background:new 0 0 150 50;" xml:space="preserve">
<style type="text/css">
	.st0{fill-rule:evenodd;clip-rule:evenodd;fill:#1F8A4D;}
	.st1{fill-rule:evenodd;clip-rule:evenodd;fill:#FFFFFF;}
	.st2{fill-rule:evenodd;clip-rule:evenodd;fill:#E2201A;}
</style>
<g>
	<g>
		<polygon class="st0" points="41.49,25.97 49.3,25.97 49.3,2.4 41.49,2.4 41.49,25.97 		"/>
		<polygon class="st0" points="57.15,25.91 65,25.91 65,2.35 57.15,2.35 57.15,25.91 		"/>
		<path class="st0" d="M78.84,25.86h-7.85V2.35h9.83C100.42,3.34,95.64,26.9,78.84,25.86L78.84,25.86z"/>
		<path class="st1" d="M78.53,19.98V7.97C87.63,6.83,88.41,20.61,78.53,19.98L78.53,19.98z"/>
		<polygon class="st0" points="98.34,25.97 106.2,25.97 106.2,2.46 98.34,2.46 98.34,25.97 		"/>
		<polygon class="st2" points="49.3,18.27 57.15,18.27 57.15,10.41 49.3,10.41 49.3,18.27 		"/>
	</g>
	<g>
		<path d="M46.4,37.03c-0.37-0.21-1.07-0.5-2-0.5c-1.34,0-1.9,0.78-1.9,1.5c0,0.96,0.63,1.43,2.06,2.05
			c1.81,0.8,2.68,1.78,2.68,3.33c0,1.88-1.4,3.3-3.93,3.3c-1.06,0-2.18-0.31-2.72-0.68l0.38-1.43c0.6,0.37,1.52,0.66,2.44,0.66
			c1.34,0,2.09-0.69,2.09-1.71c0-0.96-0.57-1.55-1.91-2.11c-1.68-0.68-2.81-1.69-2.81-3.22c0-1.78,1.43-3.12,3.67-3.12
			c1.07,0,1.88,0.26,2.37,0.52L46.4,37.03z"/>
		<path d="M56.87,46.22c-0.57,0.26-1.47,0.49-2.58,0.49c-2.44,0-3.86-1.63-3.86-4.11c0-2.41,1.35-4.34,3.65-4.34
			c2.28,0,3.2,1.9,3.2,3.9c0,0.28-0.01,0.52-0.04,0.72h-5.15c0.04,1.83,1.18,2.52,2.46,2.52c0.9,0,1.52-0.16,2.05-0.38L56.87,46.22z
			 M55.66,41.65c0.01-0.97-0.38-2.18-1.69-2.18c-1.25,0-1.78,1.24-1.87,2.18H55.66z"/>
		<path d="M67.67,38.43c-0.04,0.57-0.07,1.25-0.07,2.34v4.62c0,1.62-0.13,4.61-3.98,4.61c-0.94,0-1.93-0.21-2.56-0.59l0.38-1.33
			c0.5,0.29,1.28,0.57,2.19,0.57c1.33,0,2.27-0.74,2.27-2.58V45.3h-0.03c-0.41,0.69-1.21,1.19-2.25,1.19
			c-1.91,0-3.22-1.69-3.22-3.96c0-2.75,1.66-4.28,3.43-4.28c1.21,0,1.88,0.62,2.22,1.27h0.03l0.07-1.09H67.67z M65.88,41.56
			c0-1.07-0.71-1.96-1.75-1.96c-1.18,0-2,1.12-2,2.86c0,1.59,0.72,2.72,1.99,2.72c0.88,0,1.77-0.68,1.77-2.03V41.56z"/>
		<path d="M78.33,44.21c0,0.91,0.04,1.68,0.07,2.33h-1.5l-0.09-1.18h-0.04c-0.34,0.56-1.13,1.34-2.44,1.34
			c-1.4,0-2.62-0.87-2.62-3.46v-4.83h1.71v4.55c0,1.4,0.4,2.33,1.52,2.33c0.78,0,1.69-0.62,1.69-1.84v-5.02h1.71V44.21z"/>
		<path d="M86.56,39.93c-0.15-0.03-0.31-0.04-0.5-0.04c-1.15,0-1.87,0.94-1.87,2.36v4.3h-1.71V40.9c0-0.94-0.01-1.72-0.06-2.47h1.49
			l0.06,1.49h0.06c0.37-1.03,1.22-1.66,2.11-1.66c0.16,0,0.28,0.01,0.43,0.04V39.93z"/>
		<path d="M96.84,42.42c0,3.03-1.97,4.29-3.8,4.29c-2.11,0-3.71-1.55-3.71-4.17c0-2.74,1.68-4.28,3.83-4.28
			C95.38,38.25,96.84,39.93,96.84,42.42z M93.1,39.53c-1.46,0-2.02,1.56-2.02,2.96c0,1.59,0.75,2.93,2,2.93c1.24,0,2-1.34,2-2.96
			C95.09,41.12,94.53,39.53,93.1,39.53z"/>
		<path d="M104.53,39.96c-0.32-0.21-0.88-0.46-1.55-0.46c-0.77,0-1.18,0.44-1.18,0.99c0,0.56,0.37,0.84,1.35,1.27
			c1.34,0.54,2.05,1.28,2.05,2.46c0,1.56-1.19,2.49-3.03,2.49c-0.85,0-1.66-0.22-2.21-0.54l0.38-1.27c0.41,0.25,1.16,0.54,1.86,0.54
			c0.91,0,1.35-0.44,1.35-1.06s-0.34-0.96-1.31-1.37c-1.44-0.57-2.08-1.38-2.08-2.33c0-1.35,1.1-2.43,2.81-2.43
			c0.8,0,1.49,0.22,1.93,0.47L104.53,39.96z"/>
	</g>
</g>
</svg>
