<?xml version="1.0" encoding="utf-8"?>
<!-- Generator: Adobe Illustrator 24.0.2, SVG Export Plug-In . SVG Version: 6.00 Build 0)  -->
<svg version="1.1" id="Capa_1" xmlns="http://www.w3.org/2000/svg" xmlns:xlink="http://www.w3.org/1999/xlink" x="0px" y="0px"
	 viewBox="0 0 150 50" style="enable-background:new 0 0 150 50;" xml:space="preserve">
<style type="text/css">
	.st0{fill-rule:evenodd;clip-rule:evenodd;fill:#E40520;}
</style>
<g>
	<path class="st0" d="M30.6,13.2c6.5,0,11.8,5.3,11.8,11.8s-5.3,11.8-11.8,11.8S18.8,31.5,18.8,25C18.8,18.5,24.1,13.2,30.6,13.2
		L30.6,13.2z M30.6,14.3c-5.9,0-10.7,4.8-10.7,10.7c0,5.9,4.8,10.7,10.7,10.7S41.3,30.9,41.3,25S36.5,14.3,30.6,14.3z"/>
	<path class="st0" d="M31.2,27.3v3.6H30v-3.6c-0.6,0-1.3,0-1.6,0h-3.8c-0.3,0-0.7-0.1-1-0.2c-0.6-0.3-0.9-1-0.9-1.6
		c0-0.1,0-0.2,0-0.2c0.1-0.8,0.4-1.5,0.8-2.2s0.9-1.3,1.5-1.8c0.4-0.3,1-0.4,1.5-0.4c0.1-0.5,0.5-0.9,0.9-1.1c0.1,0,0.2-0.1,0.2-0.1
		c0.9-0.3,1.8-0.5,2.8-0.5s1.9,0.2,2.8,0.5c0.5,0.2,1,0.7,1.1,1.2c0.5-0.1,1,0,1.4,0.3c0.6,0.5,1.2,1.2,1.6,1.9
		c0.4,0.7,0.7,1.5,0.8,2.2c0,0.1,0,0.1,0,0.2c0,0.6-0.3,1.2-0.9,1.6c-0.3,0.2-0.6,0.2-1,0.2h-3.8C32.4,27.3,31.7,27.3,31.2,27.3
		L31.2,27.3z M35.3,22c-0.2-0.1-0.4-0.2-0.7,0c-0.1,0.1-0.2,0.2-0.2,0.3l-1.9,3.4c-0.1,0.1-0.1,0.2,0,0.3c0.1,0.1,0.2,0.2,0.3,0.1
		h3.9c0.1,0,0.2,0,0.3-0.1c0.2-0.1,0.3-0.3,0.3-0.6c0,0,0,0,0-0.1c-0.1-0.6-0.3-1.3-0.7-1.9C36.2,23,35.8,22.5,35.3,22
		C35.3,22.1,35.3,22,35.3,22L35.3,22z M25.9,22C25.9,22,25.9,22.1,25.9,22c-0.5,0.4-1,0.9-1.3,1.5s-0.6,1.2-0.7,1.9c0,0,0,0,0,0.1
		c0,0.2,0.1,0.4,0.3,0.6c0.1,0.1,0.2,0.1,0.3,0.1h3.9c0.1,0,0.2,0,0.3-0.1c0.1-0.1,0-0.2,0-0.3l-1.9-3.4c0-0.1-0.1-0.2-0.2-0.3
		C26.3,21.9,26.1,21.9,25.9,22L25.9,22z M33,20.7L33,20.7c-0.8-0.3-1.6-0.4-2.4-0.4s-1.6,0.1-2.4,0.4c0,0,0,0-0.1,0
		c-0.2,0.1-0.4,0.4-0.4,0.7c0,0.2,0,0.3,0.1,0.4l2.4,4.2c0.1,0.1,0.2,0.2,0.3,0.2c0.1,0,0.3-0.1,0.3-0.2l2.4-4.2
		c0.1-0.1,0.1-0.3,0.1-0.4C33.5,21,33.3,20.8,33,20.7z"/>
	<polygon class="st0" points="52.7,18.8 55.6,24.7 58.5,18.8 62.8,18.8 62.8,30.6 58.5,30.6 58.5,24.7 55.6,30.6 52.7,24.7 
		52.7,30.6 48.3,30.6 48.3,18.8 	"/>
	<path class="st0" d="M71.5,20.6l-1.8,6.2h3.5L71.5,20.6L71.5,20.6z M64.2,30.6l3.4-11.8h7.7l3.4,11.8h-4.4l-0.6-1.9H69l-0.6,1.9
		H64.2z"/>
	<path class="st0" d="M85.5,20.2c1,0,1.9,0.5,1.9,1.6s-0.8,1.9-1.9,1.9h-0.9v-3.5H85.5L85.5,20.2z M88.3,18.8h-8.2v11.8h4.4v-4.9
		h3.8c1.9,0,3.4-1.5,3.4-3.4C91.7,20.4,90.2,18.8,88.3,18.8z"/>
	<polygon class="st0" points="93.2,18.8 104.9,18.8 104.9,20.7 97.6,20.7 97.6,23.8 104.9,23.8 104.9,25.7 97.6,25.7 97.6,30.6 
		93.2,30.6 	"/>
	<polygon class="st0" points="124,28.7 131.2,28.7 131.2,30.6 119.6,30.6 119.6,18.8 131.2,18.8 131.2,20.7 124,20.7 124,23.8 
		131.2,23.8 131.2,25.7 124,25.7 	"/>
	<path class="st0" d="M111.8,20.2c1,0,1.9,0.5,1.9,1.6s-0.9,1.9-1.9,1.9h-0.9v-3.5H111.8L111.8,20.2z M118,27.6L118,27.6L118,27.6
		L118,27.6z M118,27.7C118,27.6,118,27.6,118,27.7c-0.1-1.7-1.4-3-3-3c1.6,0,3-1.3,3-3c0-1.6-1.3-3-3-3h-3.8h-4.8v5.9v5.9h4.4v-4.9
		h0.9c1.1,0,1.9,0.9,1.9,1.9v0.1v2.9h1.3h3L118,27.7L118,27.7z"/>
</g>
</svg>
