<?xml version="1.0" encoding="utf-8"?>
<!-- Generator: Adobe Illustrator 24.1.3, SVG Export Plug-In . SVG Version: 6.00 Build 0)  -->
<svg version="1.1" id="Capa_1" xmlns="http://www.w3.org/2000/svg" xmlns:xlink="http://www.w3.org/1999/xlink" x="0px" y="0px"
	 viewBox="0 0 150 150" style="enable-background:new 0 0 150 150;" xml:space="preserve">
<style type="text/css">
	.st0{fill-rule:evenodd;clip-rule:evenodd;fill:#E40520;}
</style>
<g>
	<path class="st0" d="M30.6,63.2c6.5,0,11.8,5.3,11.8,11.8c0,6.5-5.3,11.8-11.8,11.8c-6.5,0-11.8-5.3-11.8-11.8
		C18.8,68.5,24.1,63.2,30.6,63.2L30.6,63.2z M30.6,64.3c-5.9,0-10.7,4.8-10.7,10.7c0,5.9,4.8,10.7,10.7,10.7S41.3,80.9,41.3,75
		C41.3,69.1,36.5,64.3,30.6,64.3z"/>
	<path class="st0" d="M31.2,77.3v3.6H30v-3.6c-0.6,0-1.3,0-1.6,0l-3.8,0c-0.3,0-0.7-0.1-1-0.2c-0.6-0.3-0.9-1-0.9-1.6
		c0-0.1,0-0.2,0-0.2c0.1-0.8,0.4-1.5,0.8-2.2c0.4-0.7,0.9-1.3,1.5-1.8c0.4-0.3,1-0.4,1.5-0.4c0.1-0.5,0.5-0.9,0.9-1.1
		c0.1,0,0.2-0.1,0.2-0.1c0.9-0.3,1.8-0.5,2.8-0.5c1,0,1.9,0.2,2.8,0.5c0.5,0.2,1,0.7,1.1,1.2c0.5-0.1,1,0,1.4,0.3
		c0.6,0.5,1.2,1.2,1.6,1.9c0.4,0.7,0.7,1.5,0.8,2.2c0,0.1,0,0.1,0,0.2c0,0.6-0.3,1.2-0.9,1.6c-0.3,0.2-0.6,0.2-1,0.2l-3.8,0
		C32.4,77.3,31.7,77.3,31.2,77.3L31.2,77.3z M35.3,72c-0.2-0.1-0.4-0.2-0.7,0c-0.1,0.1-0.2,0.2-0.2,0.3l-1.9,3.4
		c-0.1,0.1-0.1,0.2,0,0.3c0.1,0.1,0.2,0.2,0.3,0.1l3.9,0c0.1,0,0.2,0,0.3-0.1c0.2-0.1,0.3-0.3,0.3-0.6c0,0,0,0,0-0.1
		c-0.1-0.6-0.3-1.3-0.7-1.9C36.2,73,35.8,72.5,35.3,72C35.3,72.1,35.3,72,35.3,72L35.3,72z M25.9,72C25.9,72,25.9,72.1,25.9,72
		c-0.5,0.4-1,0.9-1.3,1.5c-0.3,0.6-0.6,1.2-0.7,1.9c0,0,0,0,0,0.1c0,0.2,0.1,0.4,0.3,0.6c0.1,0.1,0.2,0.1,0.3,0.1l3.9,0
		c0.1,0,0.2,0,0.3-0.1c0.1-0.1,0-0.2,0-0.3l-1.9-3.4c0-0.1-0.1-0.2-0.2-0.3C26.3,71.9,26.1,71.9,25.9,72L25.9,72z M33,70.7
		C33,70.7,33,70.7,33,70.7c-0.8-0.3-1.6-0.4-2.4-0.4c-0.8,0-1.6,0.1-2.4,0.4c0,0,0,0-0.1,0c-0.2,0.1-0.4,0.4-0.4,0.7
		c0,0.2,0,0.3,0.1,0.4l2.4,4.2c0.1,0.1,0.2,0.2,0.3,0.2c0.1,0,0.3-0.1,0.3-0.2l2.4-4.2c0.1-0.1,0.1-0.3,0.1-0.4
		C33.5,71,33.3,70.8,33,70.7z"/>
	<polygon class="st0" points="52.7,68.8 55.6,74.7 58.5,68.8 62.8,68.8 62.8,80.6 58.5,80.6 58.5,74.7 55.6,80.6 52.7,74.7 
		52.7,80.6 48.3,80.6 48.3,68.8 	"/>
	<path class="st0" d="M71.5,70.6l-1.8,6.2h3.5L71.5,70.6L71.5,70.6z M64.2,80.6l3.4-11.8h7.7l3.4,11.8h-4.4l-0.6-1.9h-4.7l-0.6,1.9
		H64.2z"/>
	<path class="st0" d="M85.5,70.2c1,0,1.9,0.5,1.9,1.6c0,1.1-0.8,1.9-1.9,1.9h-0.9v-3.5H85.5L85.5,70.2z M88.3,68.8h-8.2v11.8h4.4
		v-4.9h3.8c1.9,0,3.4-1.5,3.4-3.4C91.7,70.4,90.2,68.8,88.3,68.8z"/>
	<polygon class="st0" points="93.2,68.8 104.9,68.8 104.9,70.7 97.6,70.7 97.6,73.8 104.9,73.8 104.9,75.7 97.6,75.7 97.6,80.6 
		93.2,80.6 	"/>
	<polygon class="st0" points="124,78.7 131.2,78.7 131.2,80.6 119.6,80.6 119.6,68.8 131.2,68.8 131.2,70.7 124,70.7 124,73.8 
		131.2,73.8 131.2,75.7 124,75.7 	"/>
	<path class="st0" d="M111.8,70.2c1,0,1.9,0.5,1.9,1.6c0,1.1-0.9,1.9-1.9,1.9h-0.9v-3.5H111.8L111.8,70.2z M118,77.6L118,77.6
		C118,77.6,118,77.6,118,77.6L118,77.6z M118,77.7C118,77.6,118,77.6,118,77.7c-0.1-1.7-1.4-3-3-3c1.6,0,3-1.3,3-3c0-1.6-1.3-3-3-3
		h-3.8h-4.8v5.9v5.9l4.4,0v-4.9h0.9c1.1,0,1.9,0.9,1.9,1.9c0,0,0,0.1,0,0.1v2.9h1.3h3V77.7z"/>
</g>
</svg>
