<?xml version="1.0" encoding="utf-8"?>
<!-- Generator: Adobe Illustrator 24.0.2, SVG Export Plug-In . SVG Version: 6.00 Build 0)  -->
<svg version="1.1" id="Layer_1" xmlns="http://www.w3.org/2000/svg" xmlns:xlink="http://www.w3.org/1999/xlink" x="0px" y="0px"
	 viewBox="0 0 150 50" style="enable-background:new 0 0 150 50;" xml:space="preserve">
<style type="text/css">
	.st0{fill-rule:evenodd;clip-rule:evenodd;fill:#762581;}
	.st1{fill-rule:evenodd;clip-rule:evenodd;fill:#189D96;}
</style>
<path class="st0" d="M74.11,3.08c6.41,0,11.64,4.31,11.64,9.6s-5.23,9.6-11.64,9.6c-6.41,0-11.64-4.31-11.64-9.6
	S67.7,3.08,74.11,3.08L74.11,3.08z M90.35,34.98h0.81v0.81h-0.81V34.98L90.35,34.98z M87.59,34.98h0.81v0.81h-0.81V34.98
	L87.59,34.98z M84.82,34.98h0.81v0.81h-0.81V34.98L84.82,34.98z M82.05,34.98h0.81v0.81h-0.81V34.98L82.05,34.98z M79.29,34.98h0.81
	v0.81h-0.81V34.98L79.29,34.98z M76.52,34.98h0.81v0.81h-0.81V34.98L76.52,34.98z M73.75,34.98h0.81v0.81h-0.81V34.98L73.75,34.98z
	 M70.99,34.98h0.81v0.81h-0.81V34.98L70.99,34.98z M68.22,34.98h0.81v0.81h-0.81V34.98L68.22,34.98z M65.45,34.98h0.81v0.81h-0.81
	V34.98L65.45,34.98z M62.69,34.98h0.81v0.81h-0.81V34.98L62.69,34.98z M59.92,34.98h0.81v0.81h-0.81V34.98L59.92,34.98z
	 M57.15,34.98h0.81v0.81h-0.81V34.98L57.15,34.98z M57.76,1.12h32.88v31.4H57.76V1.12L57.76,1.12z M56.64,0h35.12v33.65H56.64V0
	L56.64,0z M74.04,4.62L74.04,4.62c3.45,0,6.26,2.82,6.26,6.26v3.34c0,3.45-2.82,6.26-6.26,6.26l0,0c-3.45,0-6.26-2.82-6.26-6.26
	v-3.34C67.78,7.43,70.6,4.62,74.04,4.62L74.04,4.62z M64.26,21.14c1.23,0.59,8.6,3.84,9.92,4.02c1.33,0.18,4.12,0.91,7.27,0.05
	c3.16-0.87,3.11-1.6,3.98-1.6c0.87,0,0.96,0.55,0.59,1.1c-0.37,0.55-2.74,2.1-3.43,2.84c-0.69,0.73-2.24,2.33-2.65,2.65
	c-0.41,0.32-1.46,1.19-3.57-0.27c-2.1-1.46-6.81-4.34-8.73-5.35c-1.92-1.01-4.48-2.15-4.94-2.38c-0.46-0.23-0.73-0.5-0.41-1.1
	C62.61,20.5,63.02,20.54,64.26,21.14L64.26,21.14z"/>
<path class="st1" d="M60.37,38.19c1.4,0,2.31,1.71,2.31,4.43c0,2.72-0.91,4.43-2.31,4.43s-2.3-1.8-2.3-4.43
	C58.07,39.98,58.98,38.19,60.37,38.19L60.37,38.19z M79.94,41.05c-0.02,0.25,0.15,0.23,0.25,0.23s0.21,0,0.21,0v4.71
	c0,0-0.06,0.96,0.44,1.29c0.51,0.34,0.96,0.38,1.4,0c0.45-0.38,0.51-0.66,0.51-0.81c0-0.15-0.08-0.25-0.3-0.02
	c-0.21,0.23-0.47,0.38-0.7,0.36c-0.23-0.02-0.42-0.17-0.42-0.85c0-0.68,0-4.69,0-4.69h0.83c0,0,0.41-0.03,0.38-0.38
	c-0.02-0.36-0.26-0.27-0.41-0.29c-0.15-0.02-0.79,0-0.79,0v-1.06c0,0-0.15-0.51-0.36-0.13c-0.21,0.38-0.28,0.55-0.45,0.83
	C80.38,40.52,79.96,40.79,79.94,41.05L79.94,41.05z M71.31,39.76l0.27,0.16l1.43-1.45c0,0,0.56-0.53,0.51-0.8
	c-0.04-0.27-0.29-0.49-0.42-0.4c-0.13,0.09-0.74,0.91-0.91,1.2S71.31,39.76,71.31,39.76L71.31,39.76z M74.67,37.73
	c-0.06-0.4,0.53-0.3,0.75-0.46c0.24-0.17,0.32-0.39,0.53-0.36c0.21,0.03,0.17,0.3,0.17,0.44c0,0.14,0,9.13,0,9.13s0,0.23,0.19,0.32
	c0.19,0.09,0.47,0.17,0.47,0.26c0,0.09-0.1,0.3-0.3,0.3c-0.2,0-0.42-0.1-0.63-0.1c-0.22,0-0.5,0.03-0.72,0.06
	c-0.22,0.03-0.63,0.1-0.63-0.19c0-0.29,0.42-0.26,0.53-0.34c0.11-0.09,0.16-0.43,0.16-0.62c0-0.18,0-7.96,0-7.96
	s0.06-0.19-0.16-0.26C74.83,37.87,74.71,37.97,74.67,37.73L74.67,37.73z M77.3,41.63c-0.06-0.2,0.09-0.22,0.36-0.42
	c0.27-0.2,0.44-0.32,0.57-0.49c0.13-0.17,0.19-0.34,0.34-0.32c0.16,0.03,0.17,0.3,0.17,0.44c0,0.14,0,5.62,0,5.62s0,0.23,0.19,0.32
	c0.19,0.09,0.47,0.17,0.47,0.26c0,0.09-0.1,0.3-0.3,0.3c-0.2,0-0.42-0.1-0.63-0.1s-0.5,0.03-0.72,0.06
	c-0.22,0.03-0.63,0.1-0.63-0.19c0-0.29,0.42-0.26,0.53-0.34c0.11-0.09,0.16-0.43,0.16-0.62c0-0.19,0-4.09,0-4.09
	s0.06-0.19-0.16-0.26C77.45,41.74,77.36,41.83,77.3,41.63L77.3,41.63z M78.25,37.27c0.29,0,0.52,0.36,0.52,0.79
	c0,0.44-0.24,0.79-0.52,0.79c-0.29,0-0.52-0.36-0.52-0.79C77.73,37.62,77.96,37.27,78.25,37.27L78.25,37.27z M90.74,42.07
	c-0.17,0-0.31-0.3-0.36-0.59c-0.05-0.3-0.36-0.68-0.76-0.7c-0.4-0.02-0.85,0.23-0.87,0.9c-0.02,0.67-0.03,0.87,1.13,1.62
	c1.16,0.75,1.27,1.58,1.29,1.97c0.02,0.39-0.08,1.38-0.76,1.91c-0.68,0.53-1.34,0.5-1.93,0.26c-0.59-0.23-0.68-0.47-0.68-0.95
	s0-0.87,0.02-1.02c0.02-0.16,0.09-0.36,0.22-0.36c0.12,0,0.22,0.2,0.26,0.53c0.05,0.33,0.19,1.38,0.62,1.46
	c0.43,0.08,0.93,0.05,1.24-0.39c0.31-0.43,0.28-1.52-0.08-1.89c-0.36-0.37-1.32-0.79-1.69-1.29c-0.37-0.5-0.47-0.84-0.43-1.32
	c0.03-0.48,0.16-1.13,0.79-1.55c0.64-0.42,1.32-0.36,1.57-0.25c0.25,0.11,0.59,0.36,0.57,0.73C90.88,41.51,90.91,42.07,90.74,42.07
	L90.74,42.07z M83.31,42.79c0.34,0.19,0.6-0.29,0.73-0.59c0.12-0.29,0.28-0.9,0.43-1.02c0.16-0.12,0.37-0.42,0.88-0.36
	c0.51,0.06,0.36,0.81,0.36,0.98c0,0.17,0,1.52,0,1.52s-0.95,0.7-1.24,0.9c-0.29,0.2-0.88,0.74-1.16,1.3
	c-0.28,0.56-0.34,1.46,0.16,1.78c0.5,0.33,0.9,0.39,1.49-0.03c0.59-0.42,0.7-0.74,0.88-0.39c0.19,0.36,0.19,0.65,0.6,0.64
	c0.42-0.02,0.64-0.33,0.73-0.45c0.09-0.12,0.37-0.51,0.23-0.65c-0.14-0.14-0.26,0-0.34,0.12c-0.08,0.12-0.39,0.2-0.42-0.2
	c-0.07-0.85,0.02-4.28-0.07-4.93c0,0-0.15-0.98-0.9-1.06c-0.74-0.08-1.35,0.16-1.81,0.73c-0.47,0.57-0.6,0.82-0.67,0.99
	C83.14,42.25,82.97,42.6,83.31,42.79L83.31,42.79z M85.49,44c-0.26,0.18-0.53,0.36-0.88,0.7c-0.45,0.44-0.53,0.67-0.56,1.13
	c-0.03,0.47,0.11,1.02,0.7,0.92c0.59-0.11,0.7-0.39,0.81-0.68c0.11-0.29,0.16-0.6,0.16-0.88c0-0.19,0-0.75,0-1.08
	C85.72,43.99,85.59,43.94,85.49,44L85.49,44z M69.96,42.79c0.34,0.19,0.6-0.29,0.73-0.59c0.12-0.29,0.28-0.9,0.43-1.02
	c0.16-0.12,0.37-0.42,0.88-0.36c0.51,0.06,0.36,0.81,0.36,0.98c0,0.17,0,1.52,0,1.52s-0.95,0.7-1.24,0.9
	c-0.29,0.2-0.88,0.74-1.16,1.3c-0.28,0.56-0.34,1.46,0.16,1.78c0.5,0.33,0.9,0.39,1.49-0.03c0.59-0.42,0.7-0.74,0.88-0.39
	c0.19,0.36,0.19,0.65,0.6,0.64c0.42-0.02,0.64-0.33,0.73-0.45c0.09-0.12,0.37-0.51,0.23-0.65c-0.14-0.14-0.26,0-0.34,0.12
	c-0.08,0.12-0.39,0.2-0.42-0.2c-0.07-0.85,0.02-4.28-0.07-4.93c0,0-0.15-0.98-0.9-1.06c-0.74-0.08-1.35,0.16-1.81,0.73
	c-0.47,0.57-0.6,0.82-0.67,0.99C69.79,42.25,69.62,42.6,69.96,42.79L69.96,42.79z M72.36,43.84c-0.33,0.24-0.65,0.42-1.1,0.85
	c-0.45,0.44-0.53,0.67-0.56,1.13c-0.03,0.47,0.11,1.02,0.7,0.92c0.59-0.11,0.7-0.39,0.81-0.68c0.11-0.29,0.16-0.6,0.16-0.88
	C72.36,44.9,72.36,43.84,72.36,43.84L72.36,43.84z M64.14,40.81c0.02,0.33,0.14,0.23,0.26,0.28c0.12,0.05,0.38-0.05,0.38,0.4
	c0,0.45,0,3.79,0,3.79s-0.02,0.89,0.35,1.51c0.36,0.63,0.9,0.82,1.34,0.82c0.43,0,0.82-0.36,0.9-0.49c0.09-0.12,0.48-0.55,0.51-0.14
	c0.03,0.42,0.01,0.54,0.22,0.61c0.21,0.07,0.16-0.12,0.42-0.3c0.26-0.18,0.39-0.29,0.55-0.32c0.16-0.03,0.29-0.39-0.01-0.45
	c-0.3-0.06-0.31-0.16-0.32-0.56c-0.02-0.4,0-4.97,0-4.97s-0.03-0.33-0.35-0.36c-0.31-0.03-0.68,0-0.83,0
	c-0.16,0-0.31,0.12-0.28,0.26c0.03,0.14,0.21,0.17,0.38,0.3s0.23,0.28,0.23,0.52c0,0.24,0,3.49,0,3.49s0.02,0.64-0.26,1.06
	c-0.28,0.42-0.57,0.57-0.99,0.57c-0.42,0-0.92-0.33-0.94-1.25c-0.02-0.92-0.07-1.22-0.07-1.22V41c0,0,0-0.36-0.31-0.37
	c-0.21-0.01-0.6-0.01-0.91,0C64.25,40.63,64.13,40.69,64.14,40.81L64.14,40.81z M60.34,47.7c0.26,0.36,0.71,1.14,1.51,1.6
	c0.8,0.45,1.46,0.79,2.44,0.68c0.98-0.11,1.55-0.71,1.86-1.07c0.3-0.36,0.44-0.6,0.22-0.82c-0.22-0.22-0.52,0.19-0.9,0.44
	c-0.38,0.25-0.8,0.42-1.48,0.41c-0.68-0.01-1.47-0.25-1.96-0.52c-0.49-0.27-0.89-0.55-1.06-0.78c1.72-0.41,2.85-2.61,2.85-4.99
	c0-2.64-1.35-5.06-3.43-5.06c-2.07,0-3.47,2.68-3.41,5.06C57.01,45.01,58.31,47.67,60.34,47.7L60.34,47.7z"/>
</svg>
