<svg id="Grupo_1712" data-name="Grupo 1712" xmlns="http://www.w3.org/2000/svg" xmlns:xlink="http://www.w3.org/1999/xlink" width="166" height="50.421" viewBox="0 0 166 50.421">
  <defs>
    <clipPath id="clip-path">
      <rect id="Rect치ngulo_4" data-name="Rect치ngulo 4" width="166" height="50.421" fill="#f36f63"/>
    </clipPath>
  </defs>
  <g id="Grupo_1" data-name="Grupo 1" clip-path="url(#clip-path)">
    <path id="Trazado_1" data-name="Trazado 1" d="M0,70.991V48.833H10.175V70.805c0,3.532,2.276,5.814,5.6,5.814s5.6-2.282,5.6-5.814V48.833H31.551V70.991c0,8.891-6.562,14.893-15.775,14.893S0,79.882,0,70.991" transform="translate(0 -35.463)" fill="#f36f63"/>
    <path id="Trazado_2" data-name="Trazado 2" d="M152.8,51.43c8.584,0,14.647,6.167,14.647,14.83S161.385,81.091,152.8,81.091a12.943,12.943,0,0,1-8.409-2.983l-.905,2.07h-7.106V42.234h9.493V53.352a13.07,13.07,0,0,1,6.928-1.921Zm4.956,14.83a6.241,6.241,0,1,0-6.241,6.328,6.129,6.129,0,0,0,6.241-6.328" transform="translate(-99.041 -30.671)" fill="#f36f63"/>
    <path id="Trazado_3" data-name="Trazado 3" d="M282.342,51.43c8.584,0,14.647,6.167,14.647,14.83s-6.063,14.831-14.647,14.831a12.942,12.942,0,0,1-8.409-2.983l-.906,2.07h-7.106V42.234h9.493V53.352a13.069,13.069,0,0,1,6.927-1.921Zm4.956,14.83a6.241,6.241,0,1,0-6.24,6.328,6.129,6.129,0,0,0,6.24-6.328" transform="translate(-193.115 -30.671)" fill="#f36f63"/>
    <rect id="Rect치ngulo_3" data-name="Rect치ngulo 3" width="9.602" height="27.877" transform="translate(108.275 21.629)" fill="#f36f63"/>
    <path id="Trazado_4" data-name="Trazado 4" d="M463.916,76.85v8.41H457.31c-6.165,0-9.912-3.769-9.912-9.964V64.778h-5.1V62.533l12.49-13.3h1.973v8.151h7v7.395H457v8.872a2.957,2.957,0,0,0,3.231,3.2Z" transform="translate(-321.199 -35.753)" fill="#f36f63"/>
    <path id="Trazado_5" data-name="Trazado 5" d="M548.954,76.85v8.41h-6.606c-6.165,0-9.912-3.769-9.912-9.964V64.778h-5.1V62.533l12.49-13.3H541.8v8.151h7v7.395h-6.761v8.872a2.957,2.957,0,0,0,3.231,3.2Z" transform="translate(-382.954 -35.753)" fill="#f36f63"/>
    <path id="Trazado_6" data-name="Trazado 6" d="M10.029,5.015A5.015,5.015,0,1,0,5.015,10.03a5.014,5.014,0,0,0,5.014-5.014" transform="translate(0 -0.001)" fill="#f36f63"/>
    <path id="Trazado_7" data-name="Trazado 7" d="M88.634,5.015A5.015,5.015,0,1,0,83.62,10.03a5.014,5.014,0,0,0,5.014-5.014" transform="translate(-57.084 -0.001)" fill="#f36f63"/>
  </g>
</svg>
