<?xml version="1.0" encoding="utf-8"?>
<!-- Generator: Adobe Illustrator 23.1.1, SVG Export Plug-In . SVG Version: 6.00 Build 0)  -->
<svg version="1.1" id="Capa_1" xmlns="http://www.w3.org/2000/svg" xmlns:xlink="http://www.w3.org/1999/xlink" x="0px" y="0px"
	 viewBox="0 0 483 158" style="enable-background:new 0 0 483 158;" xml:space="preserve">
<style type="text/css">
	.st0{enable-background:new    ;}
	.st1{fill:#182E64;}
</style>
<g class="st0">
	<path class="st1" d="M61.9,52.6c-0.6,1-1.2,1.7-1.9,2.2c-0.6,0.5-1.5,0.7-2.5,0.7c-1,0-2-0.3-3.1-1c-1.1-0.7-2.4-1.4-3.9-2.2
		c-1.5-0.8-3.2-1.5-5.1-2.2c-1.9-0.7-4.2-1-6.8-1c-4.6,0-8,1-10.3,3.1c-2.3,2-3.4,4.7-3.4,8c0,2.1,0.6,3.9,1.9,5.2
		c1.3,1.4,2.9,2.6,5,3.6c2,1,4.4,1.9,7,2.7c2.6,0.8,5.3,1.7,8,2.6c2.7,0.9,5.4,2.1,8,3.3c2.6,1.3,4.9,2.9,7,4.8c2,1.9,3.7,4.3,5,7.1
		c1.3,2.8,1.9,6.2,1.9,10.2c0,4.4-0.8,8.4-2.3,12.2s-3.7,7.1-6.6,10c-2.9,2.8-6.4,5.1-10.6,6.7c-4.2,1.6-9,2.4-14.3,2.4
		c-3,0-6.1-0.3-9.1-0.9c-3-0.6-5.9-1.5-8.7-2.6c-2.8-1.1-5.4-2.4-7.9-4c-2.5-1.5-4.6-3.3-6.5-5.1l5.8-9.4c0.5-0.7,1.1-1.3,1.9-1.7
		s1.6-0.7,2.5-0.7c1.2,0,2.4,0.4,3.8,1.3c1.3,0.9,2.8,1.8,4.6,2.9c1.7,1.1,3.7,2,6,2.9c2.3,0.9,5,1.3,8.2,1.3
		c4.6,0,8.2-1.1,10.7-3.2c2.5-2.1,3.8-5.3,3.8-9.4c0-2.4-0.6-4.4-1.9-5.9c-1.3-1.5-2.9-2.7-4.9-3.8c-2-1-4.3-1.9-6.9-2.6
		c-2.6-0.7-5.3-1.5-8-2.4c-2.7-0.9-5.4-1.9-8-3.2c-2.6-1.2-4.9-2.9-6.9-4.9c-2-2-3.7-4.5-4.9-7.5c-1.3-3-1.9-6.7-1.9-11.2
		c0-3.6,0.7-7,2.1-10.4c1.4-3.3,3.5-6.3,6.2-8.9c2.7-2.6,6.1-4.7,10.1-6.3c4-1.6,8.5-2.4,13.7-2.4c5.8,0,11.1,0.9,16,2.7
		c4.9,1.8,9.1,4.3,12.4,7.4L61.9,52.6z"/>
	<path class="st1" d="M123.8,93.2V130H104V93.2L69.2,34.2h17.4c1.7,0,3.1,0.4,4.1,1.2c1,0.8,1.9,1.9,2.5,3.1l15.7,30.2
		c1.1,2,2,3.9,2.9,5.7c0.9,1.8,1.6,3.5,2.3,5.3c0.6-1.8,1.3-3.5,2.1-5.3c0.8-1.8,1.7-3.7,2.7-5.6l15.6-30.2c0.5-1.1,1.3-2,2.4-3
		s2.4-1.4,4.1-1.4h17.6L123.8,93.2z"/>
	<path class="st1" d="M249.3,34.2V130h-10.2c-1.5,0-2.8-0.3-3.9-0.8c-1.1-0.5-2.1-1.4-3.1-2.6l-47.7-60.7c0.1,1.5,0.2,3.1,0.3,4.6
		c0.1,1.5,0.1,2.9,0.1,4.2V130h-17.5V34.2h10.4c0.8,0,1.6,0,2.1,0.1c0.6,0.1,1.1,0.2,1.6,0.5c0.5,0.2,0.9,0.6,1.4,1
		c0.4,0.4,0.9,0.9,1.5,1.6l48,61c-0.2-1.7-0.3-3.3-0.4-4.9c-0.1-1.6-0.1-3-0.1-4.5V34.2H249.3z"/>
	<path class="st1" d="M337.2,50.2h-28V130h-19.9V50.2h-28v-16h75.8V50.2z"/>
	<path class="st1" d="M369.1,49.7v24.6H401v15h-31.9v25.1h41.1V130h-61V34.2h61v15.5H369.1z"/>
	<path class="st1" d="M481.7,113.9V130h-56.8V34.2h19.8v79.7H481.7z"/>
</g>
</svg>
